<svg width="178" height="156" xmlns="http://www.w3.org/2000/svg" xmlns:xlink="http://www.w3.org/1999/xlink" xml:space="preserve" overflow="hidden"><g transform="translate(-1770 -1622)"><path d="M1869.97 1627.48 1864.85 1672.28C1864.85 1672.28 1864.85 1672.47 1864.66 1672.47L1852.97 1672.47C1852.97 1672.47 1852.78 1672.47 1852.78 1672.28L1847.67 1627.48ZM1939.22 1666.43C1940.86 1666.43 1942.32 1667.72 1942.32 1669.37L1942.32 1769.75 1942.51 1769.75C1942.51 1771.23 1941.23 1772.69 1939.59 1772.69L1778.06 1772.69C1776.42 1772.69 1775.13 1771.23 1775.13 1769.75L1775.13 1669.37C1775.13 1667.72 1776.42 1666.43 1778.06 1666.43L1847.12 1666.43 1847.67 1672.84C1848.04 1675.59 1850.24 1677.6 1852.97 1677.6L1864.66 1677.6C1867.41 1677.6 1869.61 1675.59 1869.79 1672.84L1870.51 1666.43ZM1844.93 1622C1844.39 1622 1843.65 1622.18 1843.1 1622.92 1842.75 1623.46 1842.56 1624.38 1842.56 1624.93L1846.58 1661.13 1778.24 1661.13C1773.67 1661.13 1770.02 1664.79 1770.02 1669.37L1770.02 1769.75C1770.02 1774.33 1773.67 1777.98 1778.24 1777.98L1939.77 1777.98C1944.33 1777.98 1948 1774.33 1948 1769.75L1948 1669.37C1947.82 1664.79 1944.16 1661.13 1939.59 1661.13L1871.25 1661.13 1875.45 1624.93C1875.45 1624.38 1875.08 1623.64 1874.72 1622.92 1874.16 1622.55 1873.63 1622 1872.89 1622Z" fill="#3F9BB9" fill-rule="evenodd"/><path d="M1820.15 1702.28C1823.28 1702.28 1825.83 1704.85 1825.83 1708.15L1825.83 1713.65C1826.02 1718.43 1822.17 1722.1 1817.42 1722.1 1812.65 1722.1 1808.98 1718.25 1808.98 1713.65L1808.98 1708.15C1808.98 1704.85 1811.37 1702.28 1814.66 1702.28ZM1820.34 1726.86 1820.34 1728.51C1820.34 1729.62 1820.52 1730.53 1821.26 1731.27L1817.6 1734.94 1817.42 1734.94 1813.75 1731.27C1814.11 1730.36 1814.29 1729.44 1814.29 1728.51L1814.29 1726.86C1815.22 1727.05 1816.49 1727.05 1817.42 1727.05 1818.32 1727.05 1819.43 1726.86 1820.34 1726.86ZM1825.65 1734.38 1830.23 1736.77C1831.15 1737.14 1831.88 1738.42 1831.88 1739.53L1831.88 1755.85 1803.49 1755.85 1803.49 1739.53C1803.49 1738.42 1804.05 1737.51 1804.95 1736.77L1809.54 1734.38 1813.75 1738.61C1814.85 1739.72 1816.31 1740.09 1817.6 1740.09 1819.06 1740.09 1820.34 1739.72 1821.45 1738.61L1825.65 1734.38ZM1842.51 1688.15C1842.51 1688.15 1842.88 1688.15 1842.88 1688.33L1842.88 1755.5 1836.83 1755.85 1836.83 1739.53C1836.83 1736.23 1835 1733.47 1832.25 1732.2L1825.65 1728.88 1825.65 1728.7 1825.65 1724.84C1829.14 1722.29 1831.15 1718.06 1831.15 1713.84L1831.15 1708.34C1831.15 1702.28 1826.02 1697.32 1820.15 1697.32L1814.66 1697.32C1808.62 1697.32 1803.68 1702.28 1803.68 1708.34L1803.68 1713.84C1803.68 1718.43 1805.88 1722.29 1809.17 1724.84L1809.17 1728.7 1809.17 1728.88 1802.57 1732.2C1799.83 1733.47 1798 1736.23 1798 1739.53L1798 1755.85 1792.49 1755.85C1792.49 1755.85 1792.14 1755.85 1792.14 1755.5L1792.14 1688.33C1792.14 1688.33 1792.14 1688.15 1792.49 1688.15ZM1792.49 1683.02C1789.38 1683.02 1787 1685.57 1787 1688.52L1787 1755.5C1787 1758.61 1789.38 1761 1792.49 1761L1842.51 1761C1845.62 1761 1848 1758.61 1848 1755.5L1848 1688.33C1848 1685.39 1845.62 1683.02 1842.51 1683.02Z" fill="#3F9BB9" fill-rule="evenodd"/><path d="M1925.34 1688.29C1925.34 1688.29 1925.52 1688.29 1925.52 1688.48L1925.52 1694.33 1864.28 1694.71C1864.28 1694.71 1863.93 1694.71 1863.93 1694.33L1863.93 1688.48C1863.93 1688.48 1863.93 1688.29 1864.28 1688.29ZM1864.46 1683.02C1861.56 1683.02 1859 1685.65 1859 1688.67L1859 1694.33C1859 1697.53 1861.56 1699.98 1864.46 1699.98L1925.52 1699.98C1928.43 1699.98 1930.98 1697.53 1930.98 1694.33L1930.98 1688.48C1930.8 1685.46 1928.43 1683.02 1925.52 1683.02Z" fill="#3F9BB9" fill-rule="evenodd"/><path d="M1908.56 1711.04C1908.56 1711.04 1908.91 1711.04 1908.91 1711.39L1908.91 1716.79 1864.44 1716.97C1864.44 1716.97 1864.09 1716.97 1864.09 1716.79L1864.09 1711.39C1864.09 1711.39 1864.09 1711.04 1864.44 1711.04ZM1864.44 1706C1861.36 1706 1859 1708.34 1859 1711.39L1859 1716.79C1859 1719.66 1861.36 1722 1864.44 1722L1908.56 1722C1911.64 1722 1914 1719.66 1914 1716.79L1914 1711.39C1914 1708.34 1911.64 1706 1908.56 1706Z" fill="#3F9BB9" fill-rule="evenodd"/><path d="M1861.56 1728.01C1860.1 1728.01 1859 1729.07 1859 1730.51 1859 1731.75 1860.1 1732.98 1861.56 1732.98L1889.26 1732.98C1890.71 1732.98 1891.8 1731.75 1891.8 1730.51 1891.98 1729.07 1890.71 1728.01 1889.26 1728.01Z" fill="#3F9BB9" fill-rule="evenodd"/><path d="M1900.37 1728.01C1899.08 1728.01 1898 1729.07 1898 1730.51 1898 1731.75 1899.08 1732.98 1900.37 1732.98L1911.63 1732.98C1912.9 1732.98 1914 1731.75 1914 1730.51 1914 1729.07 1912.9 1728.01 1911.63 1728.01Z" fill="#3F9BB9" fill-rule="evenodd"/><path d="M1861.66 1744C1860.13 1744 1859 1745.51 1859 1747 1859 1748.71 1860.13 1750 1861.66 1750L1867.34 1750C1868.66 1750 1870 1748.71 1870 1747 1870 1745.51 1868.66 1744 1867.34 1744Z" fill="#3F9BB9" fill-rule="evenodd"/><path d="M1878.54 1744C1877.28 1744 1876 1745.51 1876 1747 1876 1748.71 1877.28 1750 1878.54 1750L1900.46 1750C1901.9 1750 1903 1748.71 1903 1747 1903 1745.51 1901.9 1744 1900.46 1744Z" fill="#3F9BB9" fill-rule="evenodd"/><path d="M1861.66 1756C1860.13 1756 1859 1757.12 1859 1758.41 1859 1759.9 1860.13 1761 1861.66 1761L1867.34 1761C1868.66 1761 1870 1759.9 1870 1758.41 1870 1757.12 1868.66 1756 1867.34 1756Z" fill="#3F9BB9" fill-rule="evenodd"/><path d="M1878.54 1756C1877.28 1756 1876 1757.12 1876 1758.41 1876 1759.9 1877.28 1761 1878.54 1761L1900.46 1761C1901.9 1761 1903 1759.9 1903 1758.41 1903 1757.12 1901.9 1756 1900.46 1756Z" fill="#3F9BB9" fill-rule="evenodd"/><path d="M1858.9 1661C1857.25 1661 1856.02 1662.12 1856.02 1663.59 1856.02 1664.88 1857.25 1666 1858.9 1666 1860.35 1666 1861.58 1664.88 1861.58 1663.59 1862 1662.12 1860.35 1661 1858.9 1661Z" fill="#3F9BB9" fill-rule="evenodd"/></g></svg>