<svg width="171" height="158" xmlns="http://www.w3.org/2000/svg" xmlns:xlink="http://www.w3.org/1999/xlink" xml:space="preserve" overflow="hidden"><g transform="translate(-3034 -1608)"><path d="M3085.74 1626.12 3085.74 1631.02 3059.43 1631.02 3059.43 1626.12ZM3081.2 1635.94 3081.2 1639.93 3064.69 1654.49 3064.69 1635.94ZM3136.75 1698.87C3137.28 1698.87 3137.65 1699.24 3137.65 1699.79L3137.65 1761.08 3104.8 1761.08 3104.8 1699.79C3104.8 1699.24 3105.16 1698.87 3105.71 1698.87ZM3119.39 1608.02C3118.5 1608.02 3117.6 1608.29 3116.78 1608.84L3090.28 1631.94 3090.28 1625.2C3090.28 1623.2 3088.47 1621.38 3086.47 1621.38L3058.33 1621.38C3056.15 1621.38 3054.34 1623.2 3054.34 1625.2L3054.34 1632.29C3054.34 1634.29 3056.15 1636.11 3058.33 1636.11L3059.78 1636.11 3059.78 1658.86 3035.65 1679.96C3034.38 1681.04 3034.02 1682.68 3034.38 1684.14 3034.91 1685.59 3036.55 1686.5 3037.83 1686.5L3054.15 1686.5 3054.15 1729.79C3054.15 1731.08 3055.25 1732.34 3056.7 1732.34 3057.96 1732.34 3059.25 1731.08 3059.25 1729.79L3059.25 1685.23 3119.51 1632.66 3179.75 1685.23 3179.75 1759.81C3179.75 1760.53 3179.22 1761.08 3178.49 1761.08L3142.37 1761.08 3142.37 1699.79C3142.37 1696.5 3139.65 1693.78 3136.57 1693.78L3105.35 1693.78C3102.27 1693.78 3099.54 1696.5 3099.54 1699.79L3099.54 1761.08 3060.51 1761.08C3059.78 1761.08 3059.25 1760.53 3059.25 1759.81L3059.25 1741.43C3059.25 1739.98 3057.96 1738.88 3056.7 1738.88 3055.25 1738.88 3054.15 1739.98 3054.15 1741.43L3054.15 1759.81C3054.15 1763.27 3056.88 1766 3060.33 1766L3178.31 1766C3181.75 1766 3184.48 1763.27 3184.48 1759.81L3184.48 1686.33 3200.82 1686.33C3202.27 1686.33 3203.72 1685.41 3204.09 1683.78 3204.98 1682.51 3204.82 1680.86 3203.54 1679.77L3168.32 1649.04C3167.93 1648.62 3167.36 1648.44 3166.8 1648.44 3166.1 1648.44 3165.38 1648.71 3164.88 1649.22 3163.98 1650.12 3164.16 1651.75 3165.06 1652.67L3198.09 1681.41 3183.03 1681.41 3121.86 1627.94C3121.14 1627.39 3120.27 1627.11 3119.39 1627.11 3118.5 1627.11 3117.6 1627.39 3116.78 1627.94L3055.62 1681.41 3040.54 1681.41 3063.24 1661.58 3084.84 1642.85 3119.51 1613.19 3156.35 1645.22C3156.75 1645.63 3157.27 1645.81 3157.8 1645.81 3158.46 1645.81 3159.11 1645.54 3159.62 1645.03 3160.52 1644.12 3160.35 1642.48 3159.43 1641.58L3121.86 1608.84C3121.14 1608.29 3120.27 1608.02 3119.39 1608.02Z" fill="#3F9BB9" fill-rule="evenodd"/></g></svg>