<svg width="123" height="146" xmlns="http://www.w3.org/2000/svg" xmlns:xlink="http://www.w3.org/1999/xlink" xml:space="preserve" overflow="hidden"><g transform="translate(-3881 -962)"><path d="M3908.31 1039.22C3910.65 1039.22 3912.98 1041.24 3912.98 1043.98L3912.98 1048.57C3912.98 1052.79 3909.93 1055.72 3905.96 1055.72 3902.18 1055.72 3899.12 1052.42 3899.12 1048.57L3899.12 1043.98C3899.12 1041.42 3901.11 1039.22 3903.8 1039.22ZM3908.31 1060.12 3908.31 1061.05C3908.31 1061.59 3908.49 1062.51 3908.85 1063.25L3905.96 1066.18 3902.91 1063.25C3903.25 1062.51 3903.44 1061.77 3903.44 1061.05L3903.44 1060.12ZM3903.98 1035C3899.12 1035 3895.16 1039.22 3895.16 1043.98L3895.16 1048.57C3895.16 1052.24 3896.96 1055.72 3899.65 1057.74L3899.65 1061.05 3899.65 1061.23 3894.62 1063.98C3892.27 1065.08 3891.02 1067.46 3891.02 1069.84L3891.02 1090.02C3891.02 1091.86 3891.38 1093.5 3892.45 1095.15L3894.8 1098.65C3895.16 1099.19 3895.51 1100.11 3895.51 1101.02L3895.51 1105.98C3895.51 1107.08 3896.42 1108 3897.49 1108 3898.58 1108 3899.47 1107.08 3899.47 1105.98L3899.47 1101.02C3899.47 1099.19 3899.12 1097.73 3897.85 1096.08L3895.69 1092.6C3895.16 1091.86 3894.98 1090.93 3894.98 1090.02L3894.98 1069.84C3894.98 1068.94 3895.51 1068.01 3896.42 1067.64L3900.02 1065.81 3903.25 1069.3C3904.16 1070.21 3905.42 1070.58 3906.51 1070.58 3907.58 1070.58 3908.67 1070.21 3909.56 1069.3L3912.98 1065.81 3916.6 1067.64C3917.49 1068.01 3918.04 1068.75 3918.04 1069.84L3918.04 1090.02C3918.04 1090.93 3917.67 1091.86 3917.31 1092.6L3914.96 1096.08C3914.07 1097.36 3913.53 1099.19 3913.53 1101.02L3913.53 1105.98C3913.53 1107.08 3914.44 1108 3915.51 1108 3916.6 1108 3917.49 1107.08 3917.49 1105.98L3917.49 1101.02C3917.49 1100.11 3917.67 1099.19 3918.22 1098.65L3920.38 1095.15C3921.27 1093.69 3922 1091.86 3922 1090.02L3922 1069.84C3921.64 1067.46 3920.2 1065.08 3918.04 1063.98L3912.8 1061.23 3912.8 1061.05 3912.8 1057.74C3915.51 1055.72 3917.31 1052.42 3917.31 1048.57L3917.31 1043.98C3917.31 1039.04 3913.16 1035 3908.49 1035Z" fill="#3F9BB9" fill-rule="evenodd"/><path d="M3944.3 1039.22C3946.65 1039.22 3948.99 1041.24 3948.99 1043.98L3948.99 1048.57C3948.81 1052.79 3945.92 1055.72 3941.96 1055.72 3938.17 1055.72 3935.11 1052.42 3935.11 1048.57L3935.11 1043.98C3935.11 1041.42 3937.1 1039.22 3939.79 1039.22ZM3944.3 1060.12 3944.3 1061.05C3944.3 1061.59 3944.48 1062.51 3944.85 1063.25L3941.96 1066.18 3938.9 1063.25C3939.26 1062.51 3939.44 1061.77 3939.44 1061.05L3939.44 1060.12ZM3939.97 1035C3935.11 1035 3931.15 1039.22 3931.15 1043.98L3931.15 1048.57C3931.15 1052.24 3932.95 1055.72 3935.66 1057.74L3935.66 1061.05 3935.66 1061.23 3930.6 1063.98C3928.26 1065.08 3927 1067.46 3927 1069.84L3927 1090.02C3927 1091.86 3927.36 1093.5 3928.44 1095.15L3930.78 1098.65C3931.15 1099.19 3931.51 1100.11 3931.51 1101.02L3931.51 1105.98C3931.51 1107.08 3932.4 1108 3933.49 1108 3934.57 1108 3935.48 1107.08 3935.48 1105.98L3935.48 1101.02C3935.48 1099.19 3935.11 1097.73 3933.86 1096.08L3931.69 1092.6C3931.15 1091.86 3930.97 1090.93 3930.97 1090.02L3930.97 1069.84C3930.97 1068.94 3931.51 1068.01 3932.4 1067.64L3936.01 1065.81 3939.26 1069.3C3940.15 1070.21 3941.43 1070.58 3942.5 1070.58 3943.57 1070.58 3944.66 1070.21 3945.56 1069.3L3948.99 1065.81 3952.6 1067.64C3953.49 1068.01 3954.03 1068.75 3954.03 1069.84L3954.03 1090.02C3954.03 1090.93 3953.67 1091.86 3953.31 1092.6L3950.98 1096.08C3950.07 1097.36 3949.52 1099.19 3949.52 1101.02L3949.52 1105.98C3949.52 1107.08 3950.43 1108 3951.51 1108 3952.6 1108 3953.49 1107.08 3953.49 1105.98L3953.49 1101.02C3953.49 1100.11 3953.67 1099.19 3954.22 1098.65L3956.38 1095.15C3957.27 1093.69 3958 1091.86 3958 1090.02L3958 1069.84C3957.64 1067.46 3956.2 1065.08 3954.03 1063.98L3948.81 1061.23 3948.81 1061.05 3948.81 1057.74C3951.51 1055.72 3953.31 1052.42 3953.31 1048.57L3953.31 1043.98C3953.31 1039.04 3949.18 1035 3944.48 1035Z" fill="#3F9BB9" fill-rule="evenodd"/><path d="M3980.85 1039.22C3983.27 1039.22 3985.69 1041.24 3985.69 1043.98L3985.69 1048.57C3985.5 1052.79 3982.52 1055.72 3978.45 1055.72 3974.54 1055.72 3971.37 1052.42 3971.37 1048.57L3971.37 1043.98C3971.37 1041.42 3973.42 1039.22 3976.21 1039.22ZM3980.85 1060.12 3980.85 1061.05C3980.85 1061.59 3981.04 1062.51 3981.41 1063.25L3978.45 1066.18 3975.28 1063.25C3975.65 1062.51 3975.84 1061.77 3975.84 1061.05L3975.84 1060.12ZM3976.4 1035C3971.37 1035 3967.28 1039.22 3967.28 1043.98L3967.28 1048.57C3967.28 1052.24 3969.14 1055.72 3971.93 1057.74L3971.93 1061.05 3971.93 1061.23 3966.72 1063.98C3964.31 1065.08 3963 1067.46 3963 1069.84L3963 1090.02C3963 1091.86 3963.37 1093.5 3964.5 1095.15L3966.9 1098.65C3967.28 1099.19 3967.65 1100.11 3967.65 1101.02L3967.65 1105.98C3967.65 1107.08 3968.59 1108 3969.7 1108 3970.81 1108 3971.75 1107.08 3971.75 1105.98L3971.75 1101.02C3971.75 1099.19 3971.37 1097.73 3970.07 1096.08L3967.84 1092.6C3967.28 1091.86 3967.09 1090.93 3967.09 1090.02L3967.09 1069.84C3967.09 1068.94 3967.65 1068.01 3968.59 1067.64L3972.31 1065.81 3975.65 1069.3C3976.57 1070.21 3977.88 1070.58 3978.99 1070.58 3980.12 1070.58 3981.23 1070.21 3982.16 1069.3L3985.69 1065.81 3989.41 1067.64C3990.35 1068.01 3990.89 1068.75 3990.89 1069.84L3990.89 1090.02C3990.89 1090.93 3990.52 1091.86 3990.16 1092.6L3987.74 1096.08C3986.8 1097.36 3986.25 1099.19 3986.25 1101.02L3986.25 1105.98C3986.25 1107.08 3987.18 1108 3988.3 1108 3989.41 1108 3990.35 1107.08 3990.35 1105.98L3990.35 1101.02C3990.35 1100.11 3990.52 1099.19 3991.08 1098.65L3993.31 1095.15C3994.25 1093.69 3994.98 1091.86 3994.98 1090.02L3994.98 1069.84C3994.61 1067.46 3993.13 1065.08 3990.89 1063.98L3985.5 1061.23 3985.5 1061.05 3985.5 1057.74C3988.3 1055.72 3990.16 1052.42 3990.16 1048.57L3990.16 1043.98C3990.16 1039.04 3985.88 1035 3981.04 1035Z" fill="#3F9BB9" fill-rule="evenodd"/><path d="M3922.13 969.925 3922.13 969.925C3919.02 972.695 3915.92 976.193 3913.17 980.434 3911.34 983.205 3909.89 986.331 3908.43 989.643L3896.55 989.643C3902.95 980.806 3911.9 973.98 3922.13 969.925ZM3940.4 966.241 3940.4 989.643 3913.17 989.643C3919.57 976.193 3929.44 967.355 3940.4 966.241ZM3944.6 966.241C3955.75 967.17 3965.61 976.193 3971.65 989.643L3944.6 989.643 3944.6 966.241ZM3962.88 969.925 3962.88 969.925C3973.12 973.98 3981.7 980.806 3988.47 989.643L3976.59 989.643C3975.13 986.331 3973.47 983.39 3971.65 980.434 3968.91 976.193 3965.98 972.695 3962.88 969.925ZM3906.78 993.698C3903.49 1002.18 3901.84 1011.76 3901.66 1021.53L3885.41 1021.53C3885.76 1011.39 3888.87 1001.81 3893.8 993.698ZM3940.4 993.698 3940.4 1021.53 3905.86 1021.53C3906.23 1011.39 3908.06 1001.81 3911.16 993.698ZM3973.84 993.698C3976.96 1001.99 3978.78 1011.39 3978.97 1021.53L3944.6 1021.53 3944.6 993.698ZM3991.38 993.698C3996.33 1001.99 3999.43 1011.39 3999.79 1021.53L3983.34 1021.53C3983.16 1011.76 3981.33 1002.18 3978.41 993.698ZM3942.41 962C3925.97 962 3910.62 968.454 3899.11 980.063 3887.42 991.857 3881.02 1007.33 3881.02 1023.93 3881.02 1032.22 3882.66 1040.33 3885.76 1047.7 3886.17 1048.52 3886.89 1048.94 3887.69 1048.94 3887.95 1048.94 3888.23 1048.89 3888.51 1048.8 3889.59 1048.26 3890.15 1047.14 3889.59 1046.04 3886.86 1039.59 3885.57 1032.95 3885.41 1025.95L3901.47 1025.95 3901.47 1028.54C3901.47 1029.64 3902.76 1030.57 3903.85 1030.57 3904.96 1030.57 3905.86 1029.45 3905.86 1028.35L3905.86 1025.95 3940.4 1025.95 3940.4 1028.54C3940.4 1029.64 3941.32 1030.57 3942.41 1030.57 3943.51 1030.57 3944.42 1029.64 3944.42 1028.54L3944.42 1025.95 3978.97 1025.95 3978.97 1028.35C3978.97 1029.45 3979.87 1030.57 3980.98 1030.57 3982.25 1030.57 3983.16 1029.64 3983.16 1028.54L3983.16 1025.95 3999.24 1025.95C3999.06 1032.95 3997.78 1039.59 3995.04 1046.04 3994.5 1047.14 3995.04 1048.26 3996.14 1048.8 3996.33 1048.8 3996.51 1048.98 3997.05 1048.98 3997.97 1048.98 3998.69 1048.61 3999.06 1047.7 4002.36 1039.96 4003.82 1032.04 4003.82 1023.93 4004 1007.33 3997.6 991.671 3985.9 980.063 3974.21 968.454 3958.86 962 3942.41 962Z" fill="#3F9BB9" fill-rule="evenodd"/></g></svg>