<svg width="147" height="167" xmlns="http://www.w3.org/2000/svg" xmlns:xlink="http://www.w3.org/1999/xlink" xml:space="preserve" overflow="hidden"><g transform="translate(-2635 -1617)"><path d="M2725.23 1699C2725.03 1699 2724.82 1699.03 2724.6 1699.06 2723.7 1699.43 2723.15 1699.79 2722.79 1700.71L2716.44 1718.17C2703.54 1725.99 2697.02 1740.71 2699.91 1755.44 2701.73 1764.89 2707.17 1772.71 2714.98 1778 2720.79 1781.82 2727.7 1784 2734.41 1784 2736.77 1784 2738.95 1783.63 2741.5 1783.27 2754.93 1780.53 2765.46 1770.36 2768.9 1757.09 2769.08 1755.8 2768.55 1754.35 2767.09 1754.17 2766.93 1754.15 2766.78 1754.14 2766.61 1754.14 2765.49 1754.14 2764.34 1754.72 2764.19 1755.99 2761.28 1767.26 2752.2 1776.18 2740.58 1778.53 2738.6 1778.9 2736.6 1779.08 2734.64 1779.08 2728.64 1779.08 2722.8 1777.42 2717.89 1774 2710.98 1769.44 2706.45 1762.54 2704.99 1754.54 2702.28 1741.61 2708.27 1728.52 2719.89 1722.17 2720.44 1721.8 2720.79 1721.44 2720.97 1720.7L2726.25 1706.16 2736.77 1717.62C2737.14 1717.99 2737.69 1718.17 2738.22 1718.17 2751.47 1719.8 2762.19 1729.62 2764.56 1742.53 2764.92 1743.98 2765.09 1745.45 2765.09 1746.9 2765.09 1748.01 2765.94 1749.14 2767.13 1749.14 2767.3 1749.14 2767.47 1749.11 2767.64 1749.08 2768.9 1749.08 2770 1747.98 2769.82 1746.72 2769.82 1745.08 2769.63 1743.26 2769.08 1741.61 2766.19 1726.89 2754.38 1715.8 2739.5 1713.43L2726.97 1699.79C2726.42 1699.24 2725.85 1699 2725.23 1699Z" fill="#7CD4F4" fill-rule="evenodd"/><path d="M2744.89 1745.22 2744.89 1759.21 2723.56 1759.21 2723.56 1745.22ZM2734.49 1727C2729.95 1727 2726.29 1730.68 2726.29 1735.28L2726.29 1740.06 2721.56 1740.06C2720.29 1740.06 2719 1741.17 2719 1742.64L2719 1761.42C2719 1762.89 2720.29 1763.98 2721.56 1763.98L2747.61 1763.98C2748.9 1763.98 2749.98 1762.89 2749.98 1761.42L2749.98 1742.64C2749.8 1741.17 2748.71 1740.06 2747.26 1740.06L2730.85 1740.06 2730.85 1735.28C2730.85 1733.44 2732.49 1731.79 2734.31 1731.79 2736.13 1731.79 2737.78 1733.44 2737.78 1735.28 2737.78 1736.57 2738.87 1737.87 2740.32 1737.87 2741.61 1737.87 2742.7 1736.57 2742.7 1735.28 2742.7 1730.68 2739.05 1727 2734.49 1727Z" fill="#7CD4F4" fill-rule="evenodd"/><path d="M2671.94 1738.06 2682.43 1748.78 2680.44 1750.77 2675.38 1745.51C2674.92 1745.06 2674.3 1744.83 2673.66 1744.83 2673.02 1744.83 2672.38 1745.06 2671.94 1745.51L2666.52 1750.96C2665.97 1751.5 2665.79 1752.04 2665.79 1752.77 2665.79 1753.49 2665.97 1754.22 2666.52 1754.58L2671.76 1759.84 2669.59 1761.84 2664.52 1756.58C2664.07 1756.12 2663.43 1755.9 2662.79 1755.9 2662.17 1755.9 2661.53 1756.12 2661.07 1756.58L2655.65 1762.02C2655.1 1762.57 2654.93 1763.12 2654.93 1763.84 2654.93 1764.57 2655.1 1765.29 2655.65 1765.65L2660.89 1770.91 2659.08 1772.37 2648.41 1761.66 2671.94 1738.06ZM2733.76 1617.02C2725.47 1617.02 2718.15 1620.03 2712.86 1625.35 2706.52 1631.7 2703.61 1640.96 2704.89 1651.12 2705.79 1658.57 2709.05 1666.19 2713.75 1672.72L2688.23 1698.32C2687.33 1699.23 2687.33 1700.86 2688.23 1701.76 2688.59 1702.13 2689.32 1702.49 2690.04 1702.49 2690.77 1702.49 2691.31 1702.13 2691.84 1701.76L2717.19 1676.35C2717.92 1677.26 2718.65 1677.98 2719.36 1678.89 2720.27 1679.81 2720.99 1680.34 2721.9 1681.07L2670.48 1732.62 2645.51 1757.85 2640.62 1752.95 2685.16 1708.3C2686.05 1707.39 2686.05 1705.76 2685.16 1704.86 2684.79 1704.4 2684.2 1704.17 2683.59 1704.17 2682.98 1704.17 2682.34 1704.4 2681.9 1704.86L2635.73 1751.14C2635.2 1751.67 2635.01 1752.4 2635.01 1752.95 2635.01 1753.67 2635.2 1754.4 2635.73 1754.77L2644.06 1763.12 2658 1777.27C2658.55 1777.82 2659.26 1778 2659.81 1778 2660.54 1778 2661.26 1777.63 2661.8 1777.27L2667.05 1771.83C2667.6 1771.28 2667.78 1770.74 2667.78 1770.01 2667.78 1769.28 2667.6 1768.75 2667.05 1768.2L2661.99 1762.94 2663.98 1760.94 2669.22 1766.2C2669.68 1766.66 2670.27 1766.89 2670.85 1766.89 2671.44 1766.89 2672.03 1766.66 2672.48 1766.2L2677.92 1760.76C2678.45 1760.21 2678.63 1759.66 2678.63 1758.94 2678.63 1758.21 2678.45 1757.48 2677.92 1757.13L2672.84 1751.86 2674.83 1749.86 2680.09 1755.13C2680.53 1755.57 2681.13 1755.8 2681.72 1755.8 2682.3 1755.8 2682.89 1755.57 2683.35 1755.13L2688.77 1749.68C2689.69 1748.78 2689.69 1747.14 2688.77 1746.23L2676.46 1733.71 2726.43 1683.62C2734.57 1689.43 2743.98 1692.87 2752.86 1692.87 2757.02 1692.87 2760.82 1692.14 2764.44 1690.88 2765.7 1690.33 2766.25 1689.06 2765.7 1687.61 2765.44 1686.67 2764.58 1686.12 2763.63 1686.12 2763.3 1686.12 2762.97 1686.2 2762.63 1686.33 2759.54 1687.51 2756.22 1688.07 2752.76 1688.07 2742.84 1688.07 2732 1683.39 2723.53 1674.9 2708.69 1660.2 2705.97 1639.15 2717.19 1628.07 2721.76 1623.42 2728.03 1621.15 2734.85 1621.15 2744.52 1621.15 2755.3 1625.7 2763.89 1634.42 2778.73 1649.12 2781.45 1670.19 2770.23 1681.26L2770.05 1681.62C2769.14 1682.52 2769.14 1683.97 2770.05 1684.88 2770.51 1685.34 2771.13 1685.57 2771.77 1685.57 2772.41 1685.57 2773.03 1685.34 2773.49 1684.88L2773.67 1684.7C2779.46 1679.08 2782 1669.82 2780.72 1659.47 2779.46 1649.49 2774.4 1639.5 2766.43 1631.7 2758.65 1623.72 2748.69 1618.45 2738.73 1617.37 2737.04 1617.12 2735.39 1617.02 2733.76 1617.02Z" fill="#7CD4F4" fill-rule="evenodd"/><path d="M2736.37 1631.74C2743.36 1631.74 2750.88 1634.99 2756.97 1641.32 2767.16 1651.62 2769.49 1666.63 2761.61 1674.58 2758.57 1677.67 2754.09 1679.29 2749.27 1679.29 2742.28 1679.29 2734.76 1676.04 2728.67 1669.71 2723.49 1664.65 2720.45 1658.14 2719.55 1651.98 2718.84 1645.83 2720.45 1640.41 2724.03 1636.61 2727.06 1633.36 2731.54 1631.74 2736.37 1631.74ZM2736.82 1627.02C2730.63 1627.02 2725.09 1629.17 2720.99 1633.18 2716.15 1637.87 2714 1644.94 2715.08 1652.53 2715.97 1660.12 2719.73 1667.35 2725.64 1673.14 2732.45 1680.19 2741.39 1683.98 2749.45 1683.98 2755.52 1683.98 2761.09 1682.01 2765.19 1677.85 2769.67 1673.14 2772 1666.09 2771.1 1658.5 2770.21 1651.09 2766.27 1643.84 2760.54 1637.87 2754.64 1632.09 2747.3 1628.11 2740.13 1627.21 2739.02 1627.08 2737.9 1627.02 2736.82 1627.02Z" fill="#7CD4F4" fill-rule="evenodd"/><path d="M2733.22 1748C2732.03 1748 2731 1749.16 2731 1750.68 2731 1751.65 2731.34 1752.21 2732.03 1752.79L2732.03 1754.51C2732.03 1755.84 2733.05 1757 2734.41 1757 2735.61 1757 2736.63 1755.84 2736.63 1754.51L2736.63 1752.79C2737.31 1752.21 2737.83 1751.65 2737.83 1750.68 2737.99 1749.16 2736.97 1748 2735.61 1748Z" fill="#7CD4F4" fill-rule="evenodd"/></g></svg>