<svg width="174" height="175" xmlns="http://www.w3.org/2000/svg" xmlns:xlink="http://www.w3.org/1999/xlink" xml:space="preserve" overflow="hidden"><defs><clipPath id="clip0"><rect x="2921" y="1392" width="174" height="175"/></clipPath></defs><g clip-path="url(#clip0)" transform="translate(-2921 -1392)"><path d="M2983.99 1392.02C2979.99 1392.02 2976.53 1395.1 2975.61 1398.93L2973.08 1411.86C2970.34 1412.76 2967.79 1413.68 2965.43 1415.13L2954.5 1407.86C2953.05 1406.85 2951.38 1406.37 2949.73 1406.37 2947.48 1406.37 2945.26 1407.26 2943.58 1408.94L2937.76 1414.58C2934.84 1417.5 2934.49 1422.04 2936.66 1425.5L2943.95 1436.43C2942.67 1438.99 2941.76 1441.52 2940.85 1444.08L2927.74 1446.63C2923.74 1447.53 2921 1450.99 2921 1455.18L2921 1463.01C2921 1467.2 2923.92 1470.47 2927.74 1471.57L2940.85 1473.94C2941.76 1476.66 2942.67 1479.21 2943.95 1481.77L2936.66 1492.68C2934.49 1496.14 2934.84 1500.7 2937.76 1503.6L2943.58 1509.24C2945.26 1510.92 2947.48 1511.83 2949.73 1511.83 2951.38 1511.83 2953.05 1511.34 2954.5 1510.34L2965.43 1503.07C2967.79 1504.52 2970.34 1505.42 2973.08 1506.34L2975.61 1519.26C2976.53 1523.26 2979.99 1526 2983.99 1526L2992.01 1526C2996.01 1526 2999.47 1523.08 3000.38 1519.26L3002.92 1506.34C3004.93 1505.6 3006.93 1504.7 3009.11 1503.78 3010.38 1503.6 3011.12 1501.96 3010.38 1500.7 3009.86 1499.62 3008.93 1498.95 3007.91 1498.95 3007.52 1498.95 3007.14 1499.04 3006.75 1499.24 3004.56 1500.33 3002.2 1501.23 2999.65 1501.78 2998.73 1501.96 2997.83 1502.88 2997.65 1503.78L2994.74 1518.35C2994.56 1519.62 2993.09 1520.89 2991.82 1520.89L2983.81 1520.89C2982.36 1520.89 2981.09 1519.62 2980.91 1518.35L2977.8 1503.78C2977.62 1502.88 2976.9 1501.96 2975.8 1501.78 2972.34 1500.88 2969.25 1499.41 2966.33 1497.59 2965.88 1497.41 2965.34 1497.32 2964.79 1497.32 2964.24 1497.32 2963.69 1497.41 2963.25 1497.59L2951.04 1505.79C2950.57 1506.18 2949.96 1506.37 2949.35 1506.37 2948.55 1506.37 2947.74 1506.05 2947.22 1505.42L2941.4 1499.78C2940.31 1498.51 2940.31 1496.87 2941.03 1495.77L2949.22 1483.59C2949.78 1482.67 2949.78 1481.58 2949.22 1480.67 2947.41 1477.58 2946.3 1474.29 2945.04 1471.02 2944.85 1470.12 2943.95 1469.2 2943.03 1469.01L2928.48 1466.11C2927.01 1465.74 2925.92 1464.46 2925.92 1463.01L2925.92 1455.18C2925.92 1453.72 2927.01 1452.46 2928.48 1452.09L2943.03 1449.17C2943.95 1448.99 2944.85 1448.27 2945.04 1447.17 2945.95 1443.71 2947.41 1440.62 2949.22 1437.52 2949.59 1436.62 2949.59 1435.51 2949.22 1434.61L2941.03 1422.41C2940.13 1421.14 2940.31 1419.32 2941.4 1418.41L2947.22 1412.76C2947.82 1412.17 2948.58 1411.89 2949.35 1411.89 2949.96 1411.89 2950.55 1412.08 2951.04 1412.4L2963.25 1420.59C2963.69 1420.87 2964.24 1421 2964.79 1421 2965.34 1421 2965.88 1420.87 2966.33 1420.59 2969.25 1418.77 2972.71 1417.5 2975.8 1416.4 2976.72 1416.22 2977.62 1415.32 2977.8 1414.4L2980.91 1399.84C2981.09 1398.38 2982.36 1397.29 2983.81 1397.29L2991.82 1397.29C2993.09 1397.29 2994.56 1398.38 2994.74 1399.84L2997.65 1414.4C2997.83 1415.32 2998.56 1416.22 2999.65 1416.4 3003.11 1417.32 3006.39 1418.77 3009.3 1420.59 3009.76 1420.78 3010.26 1420.87 3010.75 1420.87 3011.26 1420.87 3011.76 1420.78 3012.22 1420.59L3024.59 1412.4C3025.06 1412.01 3025.67 1411.82 3026.29 1411.82 3027.08 1411.82 3027.89 1412.14 3028.41 1412.76L3034.05 1418.41C3035.15 1419.67 3035.15 1421.14 3034.6 1422.41L3026.41 1434.61C3025.69 1435.51 3025.69 1436.62 3026.41 1437.52 3028.23 1440.62 3029.33 1443.89 3030.41 1447.17 3030.6 1448.08 3031.51 1448.99 3032.42 1449.17L3046.99 1452.09C3048.44 1452.46 3049.53 1453.72 3049.53 1455.18L3049.53 1463.01C3049.53 1464.46 3048.44 1465.74 3046.99 1466.11L3032.42 1469.01C3031.51 1469.2 3030.6 1469.93 3030.41 1471.02 3029.7 1473.57 3028.78 1475.76 3027.69 1478.11 3026.96 1479.4 3027.69 1481.03 3029.14 1481.77 3029.48 1481.95 3029.85 1482.04 3030.22 1482.04 3031.22 1482.04 3032.25 1481.37 3032.78 1480.3 3033.69 1478.3 3034.6 1476.29 3035.15 1473.94L3048.26 1471.57C3052.26 1470.65 3054.98 1467.2 3054.98 1463.01L3054.98 1455.18C3054.98 1450.99 3052.08 1447.53 3048.26 1446.63L3035.15 1444.08C3034.24 1441.34 3033.33 1438.99 3032.05 1436.43L3039.34 1425.5C3041.51 1422.04 3041.16 1417.5 3038.24 1414.58L3032.42 1408.94C3030.73 1407.26 3028.52 1406.37 3026.27 1406.37 3024.62 1406.37 3022.95 1406.85 3021.5 1407.86L3010.57 1415.13C3008.21 1413.68 3005.66 1412.76 3002.92 1411.86L3000.38 1398.93C2999.47 1394.74 2996.01 1392.02 2992.01 1392.02Z" fill="#3F9BB9" fill-rule="evenodd"/><path d="M2987.88 1428.02C2979.83 1428.02 2972.15 1431.3 2966.29 1436.97 2965.02 1438.07 2965.02 1439.72 2966.29 1440.81 2966.84 1441.36 2967.52 1441.63 2968.21 1441.63 2968.9 1441.63 2969.58 1441.36 2970.13 1440.81 2974.9 1436.25 2981.29 1433.5 2987.88 1433.5 3002.16 1433.5 3013.68 1445.01 3013.68 1459.09 3013.68 1463.3 3012.58 1467.14 3010.93 1470.79 3010.03 1472.44 3010.38 1473.89 3011.85 1474.63 3012.22 1475 3012.76 1475 3013.13 1475 3014.05 1475 3015.14 1474.45 3015.7 1473.36 3017.89 1468.97 3018.98 1464.21 3018.98 1459.09 3018.98 1441.91 3005.08 1428.02 2987.88 1428.02Z" fill="#3F9BB9" fill-rule="evenodd"/><path d="M2961.04 1447.02C2959.99 1447.02 2958.91 1447.68 2958.48 1448.67 2957.39 1451.98 2957.02 1455.47 2957.02 1458.77 2957.02 1476.03 2970.96 1489.98 2988.01 1489.98 2994.8 1489.98 3000.84 1487.96 3006.35 1484.11 3007.63 1483.2 3008 1481.53 3007.08 1480.25 3006.51 1479.45 3005.66 1479 3004.78 1479 3004.26 1479 3003.72 1479.17 3003.23 1479.51 2998.82 1482.64 2993.51 1484.29 2988.38 1484.29 2974.07 1484.29 2962.7 1472.91 2962.7 1458.58 2962.7 1455.84 2963.07 1452.89 2963.98 1450.32 2964.35 1449.22 2963.25 1447.57 2961.96 1447.2 2961.67 1447.08 2961.36 1447.02 2961.04 1447.02Z" fill="#3F9BB9" fill-rule="evenodd"/><path d="M3047.34 1477.02C3044.24 1477.02 3041.48 1479.21 3040.94 1482.3L3039.28 1490.15C3038 1490.7 3036.35 1491.43 3035.25 1491.98L3028.29 1487.42C3027.3 1486.67 3026.12 1486.32 3024.9 1486.32 3023.15 1486.32 3021.33 1487.04 3020.04 1488.33L3016.38 1491.98C3014.17 1494.35 3013.99 1497.63 3015.47 1500.19L3020.04 1507.12C3019.13 1508.95 3018.58 1510.96 3017.84 1512.96 3017.3 1514.44 3018.21 1515.89 3019.67 1516.44 3019.9 1516.54 3020.15 1516.58 3020.39 1516.58 3021.52 1516.58 3022.7 1515.66 3023.16 1514.62 3023.7 1512.61 3024.44 1510.6 3025.53 1508.41 3026.09 1507.49 3026.09 1506.4 3025.53 1505.48L3020.04 1497.27C3019.85 1496.73 3019.85 1496.36 3020.41 1495.99L3024.07 1492.16C3024.29 1491.95 3024.56 1491.85 3024.83 1491.85 3025.03 1491.85 3025.21 1491.9 3025.35 1491.98L3033.6 1497.45C3034.06 1497.82 3034.57 1498 3035.08 1498 3035.57 1498 3036.08 1497.82 3036.54 1497.45 3038.37 1496.36 3040.76 1495.44 3042.77 1494.91 3043.68 1494.72 3044.6 1493.8 3044.79 1492.9L3046.62 1483.41C3046.62 1482.86 3047.16 1482.49 3047.71 1482.49L3053.02 1482.49C3053.58 1482.49 3053.95 1482.86 3054.13 1483.41L3055.96 1492.9C3056.33 1493.8 3056.87 1494.72 3058.17 1494.91 3060.18 1495.63 3062.2 1496.36 3064.22 1497.45 3064.75 1497.73 3065.31 1497.86 3065.83 1497.86 3066.37 1497.86 3066.86 1497.73 3067.32 1497.45L3075.57 1491.98C3075.73 1491.9 3075.91 1491.85 3076.1 1491.85 3076.36 1491.85 3076.64 1491.95 3076.85 1492.16L3080.52 1495.99C3081.07 1496.36 3081.07 1496.73 3080.7 1497.27L3075.21 1505.48C3074.65 1506.4 3074.65 1507.49 3075.21 1508.41 3076.48 1510.23 3077.41 1512.61 3077.78 1514.62 3077.96 1515.52 3078.87 1516.44 3079.79 1516.63L3089.5 1518.45C3089.86 1518.45 3090.41 1518.99 3090.41 1519.54L3090.41 1524.83C3090.41 1525.38 3089.86 1525.75 3089.5 1525.93L3079.79 1527.76C3078.87 1528.12 3077.96 1528.66 3077.78 1529.95 3077.04 1531.96 3076.48 1533.96 3075.21 1535.97 3074.84 1536.88 3074.84 1538.15 3075.21 1539.07L3080.7 1547.29C3081.07 1547.65 3081.07 1548.19 3080.52 1548.56L3076.85 1552.21C3076.65 1552.51 3076.39 1552.65 3076.14 1552.65 3075.94 1552.65 3075.73 1552.56 3075.57 1552.39L3067.32 1546.92C3066.86 1546.64 3066.32 1546.5 3065.77 1546.5 3065.22 1546.5 3064.66 1546.64 3064.22 1546.92 3062.38 1548.19 3060.18 1549.11 3058.17 1549.48 3057.24 1549.83 3056.33 1550.75 3055.96 1551.49L3054.13 1561.16C3054.13 1561.7 3053.76 1562.06 3053.02 1562.06L3047.71 1562.06C3047.34 1562.06 3046.81 1561.51 3046.62 1561.16L3044.79 1551.49C3044.6 1550.75 3043.87 1549.83 3042.77 1549.48 3040.76 1548.93 3038.56 1548.19 3036.54 1546.92 3036.08 1546.73 3035.57 1546.64 3035.08 1546.64 3034.57 1546.64 3034.06 1546.73 3033.6 1546.92L3025.35 1552.39C3025.1 1552.56 3024.9 1552.65 3024.7 1552.65 3024.47 1552.65 3024.27 1552.51 3024.07 1552.21L3020.41 1548.56C3019.85 1548.19 3019.85 1547.65 3020.04 1547.29L3025.53 1539.07C3026.27 1538.15 3026.27 1536.88 3025.53 1535.97 3024.44 1534.15 3023.52 1531.96 3023.16 1529.95 3022.79 1529.03 3021.87 1528.12 3020.96 1527.76L3011.43 1525.93C3010.88 1525.93 3010.51 1525.56 3010.51 1524.83L3010.51 1519.54C3010.51 1519.17 3010.88 1518.8 3011.43 1518.45L3012.16 1518.27C3013.62 1518.08 3014.54 1516.44 3014.17 1514.97 3014.02 1513.73 3012.8 1512.89 3011.54 1512.89 3011.33 1512.89 3011.1 1512.92 3010.88 1512.96L3010.33 1513.33C3007.22 1513.88 3005.02 1516.63 3005.02 1519.54L3005.02 1524.83C3005.02 1528.12 3007.22 1530.85 3010.33 1531.22L3018.21 1532.86C3018.76 1534.15 3019.48 1535.79 3020.04 1536.88L3015.47 1543.82C3013.62 1546.37 3014.17 1550.02 3016.38 1552.02L3020.04 1555.67C3021.42 1556.96 3023.19 1557.62 3024.89 1557.62 3026.1 1557.62 3027.29 1557.28 3028.29 1556.59L3035.25 1552.02C3036.54 1552.76 3038 1553.31 3039.28 1553.85L3040.94 1561.88C3041.67 1564.81 3044.42 1567 3047.34 1567L3052.67 1567C3055.78 1567 3058.54 1564.81 3059.07 1561.88L3060.72 1553.85C3062.01 1553.31 3063.66 1552.76 3064.75 1552.02L3071.54 1556.59C3072.59 1557.34 3073.84 1557.7 3075.07 1557.7 3076.84 1557.7 3078.59 1556.97 3079.79 1555.67L3083.46 1552.02C3085.84 1549.66 3086.01 1546.37 3084.36 1543.82L3079.79 1536.88C3080.52 1535.61 3081.25 1534.15 3081.62 1532.86L3089.69 1531.22C3092.61 1530.49 3095 1527.76 3095 1524.83L3095 1519.54C3095 1516.08 3092.98 1513.52 3089.69 1512.78L3081.81 1511.14C3081.25 1509.87 3080.52 1508.23 3079.98 1507.12L3084.55 1500.19C3086.38 1497.63 3085.84 1493.99 3083.64 1491.98L3079.98 1488.33C3078.58 1487.06 3076.82 1486.4 3075.11 1486.4 3073.9 1486.4 3072.71 1486.73 3071.73 1487.42L3064.75 1491.98C3063.48 1491.43 3062.01 1490.7 3060.72 1490.15L3059.07 1482.3C3058.35 1479.21 3055.6 1477.02 3052.67 1477.02Z" fill="#3F9BB9" fill-rule="evenodd"/><path d="M3049.5 1506.02C3040.93 1506.02 3034.02 1512.75 3034.02 1521.51 3034.02 1529.9 3040.76 1537 3049.5 1537 3052.77 1537 3056.06 1535.73 3058.79 1533.72 3059.89 1532.81 3060.07 1530.98 3059.16 1529.9 3058.6 1529.22 3057.7 1528.83 3056.84 1528.83 3056.29 1528.83 3055.76 1528.99 3055.33 1529.35 3053.51 1530.8 3051.5 1531.53 3049.13 1531.53 3043.67 1531.53 3039.48 1526.97 3039.48 1521.69 3039.84 1516.23 3044.22 1511.66 3049.68 1511.66 3055.15 1511.66 3059.52 1516.23 3059.52 1521.51 3059.52 1523.15 3060.61 1524.23 3062.25 1524.23 3063.71 1524.23 3064.98 1523.15 3064.98 1521.51 3064.98 1512.93 3058.07 1506.02 3049.5 1506.02Z" fill="#3F9BB9" fill-rule="evenodd"/><path d="M2987.41 1447.71C2993.47 1447.71 2998.46 1452.84 2998.46 1459.09 2998.46 1465.16 2993.47 1470.29 2987.41 1470.29 2981.35 1470.29 2976.54 1465.16 2976.54 1459.09 2976.54 1452.84 2981.53 1447.71 2987.41 1447.71ZM2987.41 1442.02C2978.32 1442.02 2971.01 1449.54 2971.01 1459.09 2971.01 1468.46 2978.32 1475.98 2987.41 1475.98 2996.68 1475.8 3003.99 1468.27 3003.99 1459.09 3003.99 1449.54 2996.68 1442.02 2987.41 1442.02Z" fill="#3F9BB9" fill-rule="evenodd"/></g></svg>