<svg width="161" height="161" xmlns="http://www.w3.org/2000/svg" xmlns:xlink="http://www.w3.org/1999/xlink" xml:space="preserve" overflow="hidden"><g transform="translate(-1793 -1176)"><path d="M1908.5 1234.21C1912.61 1234.21 1915.99 1237.54 1915.99 1242 1915.99 1246.44 1912.61 1249.98 1908.5 1249.98 1904.21 1249.98 1900.83 1246.44 1900.83 1242 1900.83 1237.54 1904.21 1234.21 1908.5 1234.21ZM1908.5 1229C1901.55 1229 1896 1234.75 1896 1242 1896 1249.23 1901.55 1254.98 1908.5 1254.98 1915.27 1254.98 1920.98 1249.23 1920.98 1242 1920.98 1234.75 1915.27 1229 1908.5 1229Z" fill="#3F9BB9" fill-rule="evenodd"/><path d="M1907.86 1260C1904.4 1260 1900.76 1260.93 1897.84 1262.59 1896.57 1263.15 1896.02 1264.8 1896.57 1265.9 1897.1 1266.86 1898.14 1267.42 1899.08 1267.42 1899.41 1267.42 1899.73 1267.34 1900.03 1267.2 1902.4 1265.9 1905.12 1265.36 1907.49 1265.36 1915.52 1265.36 1922.08 1271.26 1923.54 1278.82L1907.49 1278.82C1906.22 1278.82 1904.94 1280.11 1904.94 1281.41 1904.94 1282.88 1906.22 1283.98 1907.49 1283.98L1926.26 1283.98C1927.55 1283.98 1928.82 1282.88 1928.82 1281.41 1929 1269.61 1919.34 1260 1907.86 1260Z" fill="#3F9BB9" fill-rule="evenodd"/><path d="M1838.14 1260C1826.66 1260 1817 1269.61 1817 1281.41 1817 1282.88 1818.09 1283.98 1819.56 1283.98L1838.51 1283.98C1839.78 1283.98 1840.88 1282.88 1840.88 1281.41 1840.88 1280.11 1839.96 1278.82 1838.69 1278.82L1822.46 1278.82C1823.57 1271.08 1830.48 1265.36 1838.51 1265.36 1841.24 1265.36 1843.6 1265.9 1845.97 1267.2 1846.3 1267.36 1846.66 1267.45 1847.03 1267.45 1847.95 1267.45 1848.93 1266.96 1849.43 1265.9 1849.98 1264.8 1849.62 1263.15 1848.16 1262.59 1845.26 1260.93 1841.6 1260 1838.14 1260Z" fill="#3F9BB9" fill-rule="evenodd"/><path d="M1838 1234.21C1842.27 1234.21 1845.79 1237.54 1845.79 1242 1845.79 1246.44 1842.27 1249.98 1838 1249.98 1833.54 1249.98 1830.02 1246.44 1830.02 1242 1830.02 1237.54 1833.73 1234.21 1838 1234.21ZM1838 1229C1830.77 1229 1825.02 1234.75 1825.02 1242 1825.02 1249.23 1830.77 1254.98 1838 1254.98 1845.05 1254.98 1850.98 1249.23 1850.98 1242 1850.98 1234.75 1845.05 1229 1838 1229Z" fill="#3F9BB9" fill-rule="evenodd"/><path d="M1873 1228.27C1879.54 1228.27 1884.76 1233.15 1884.76 1239.5 1884.76 1245.85 1879.54 1250.92 1873 1250.92 1866.46 1250.92 1861.43 1245.85 1861.43 1239.5 1861.43 1233.15 1866.46 1228.27 1873 1228.27ZM1873 1223.02C1863.67 1223.02 1856.02 1230.44 1856.02 1239.5 1856.02 1248.56 1863.67 1256 1873 1256 1882.33 1256 1889.98 1248.56 1889.98 1239.5 1889.98 1230.44 1882.33 1223.02 1873 1223.02Z" fill="#3F9BB9" fill-rule="evenodd"/><path d="M1873 1265.85C1884.63 1265.85 1894.45 1274.66 1895.53 1285.96L1850.47 1285.96C1851.92 1274.66 1861.37 1265.85 1873 1265.85ZM1873 1261.01C1857.55 1261.01 1845 1273.41 1845 1288.66 1845 1289.91 1846.28 1290.99 1847.55 1290.99L1898.27 1290.99C1899.53 1290.99 1900.82 1289.91 1900.82 1288.66 1901 1273.41 1888.45 1261.01 1873 1261.01Z" fill="#3F9BB9" fill-rule="evenodd"/><path d="M1876.06 1189.86C1910.74 1191.33 1938.84 1219.4 1940.13 1254.03L1933.92 1254.03C1932.64 1254.03 1931.54 1255.14 1931.54 1256.59 1931.54 1257.86 1932.64 1258.97 1933.92 1258.97L1940.13 1258.97C1938.84 1293.97 1910.92 1321.86 1876.06 1323.14L1876.06 1316.94C1876.06 1315.49 1874.96 1314.38 1873.5 1314.38 1872.23 1314.38 1870.94 1315.49 1870.94 1316.94L1870.94 1323.14C1836.26 1321.67 1808.33 1293.6 1806.87 1258.97L1813.08 1258.97C1814.36 1258.97 1815.64 1257.86 1815.64 1256.59 1815.64 1255.14 1814.36 1254.03 1813.08 1254.03L1806.87 1254.03C1808.33 1219.4 1836.26 1191.33 1870.94 1189.86L1870.94 1196.06C1870.94 1197.51 1872.23 1198.62 1873.5 1198.62 1874.96 1198.62 1876.06 1197.51 1876.06 1196.06L1876.06 1189.86ZM1873.5 1176C1872.23 1176 1870.94 1177.29 1870.94 1178.56L1870.94 1184.76C1833.35 1186.03 1803.04 1216.49 1801.59 1254.03L1795.56 1254.03C1794.1 1254.03 1793 1255.14 1793 1256.59 1793 1257.86 1794.1 1258.97 1795.56 1258.97L1801.59 1258.97C1803.04 1296.7 1833.35 1326.97 1870.94 1328.24L1870.94 1334.44C1870.94 1335.9 1872.23 1337 1873.5 1337 1874.96 1337 1876.06 1335.9 1876.06 1334.44L1876.06 1328.24C1913.65 1326.97 1943.96 1296.7 1945.41 1258.97L1951.62 1258.97C1952.9 1258.97 1954 1257.86 1954 1256.59 1954 1255.14 1953.08 1254.03 1951.62 1254.03L1945.41 1254.03C1943.96 1216.49 1913.65 1186.03 1876.06 1184.76L1876.06 1178.56C1876.06 1177.29 1874.96 1176 1873.5 1176Z" fill="#3F9BB9" fill-rule="evenodd"/></g></svg>